<svg width="152" height="82" viewBox="0 0 152 82" fill="none" xmlns="http://www.w3.org/2000/svg">
<g clip-path="url(#clip0_775_9846)">
<rect y="0.356445" width="28" height="28" rx="4" fill="#5D58F7"/>
<path d="M20.2708 5.02295H10.7593L16.7222 10.9858L20.9779 6.73006C21.6079 6.10009 21.1617 5.02295 20.2708 5.02295Z" fill="url(#paint0_linear_775_9846)"/>
<path d="M7.39956 23.6895L16.9819 23.6895L11.019 17.4673L6.67757 21.9975C6.06822 22.6334 6.51888 23.6895 7.39956 23.6895Z" fill="url(#paint1_linear_775_9846)"/>
<path d="M5.70418 11.9218C5.33942 11.5412 5.33278 10.9428 5.68901 10.5542L10.7593 5.02295L22.4965 16.7601C22.887 17.1506 22.887 17.7838 22.4965 18.1743L16.9814 23.6894L5.70418 11.9218Z" fill="white"/>
</g>
<path d="M41.4849 21.804C40.4543 21.804 39.5225 21.6239 38.6895 21.2639C37.8706 20.9038 37.2212 20.3853 36.7412 19.7083C36.2612 19.0313 36.0141 18.232 36 17.3101H39.1766C39.2189 17.9295 39.4307 18.4192 39.8119 18.7793C40.2072 19.1394 40.7437 19.3194 41.4214 19.3194C42.1131 19.3194 42.6567 19.1538 43.052 18.8225C43.4473 18.4768 43.645 18.0303 43.645 17.483C43.645 17.0365 43.5108 16.6692 43.2426 16.3811C42.9743 16.0931 42.6355 15.8698 42.2261 15.7114C41.8308 15.5385 41.2802 15.3513 40.5743 15.1497C39.6142 14.8616 38.8307 14.5807 38.2236 14.3071C37.6306 14.019 37.1153 13.5941 36.6777 13.0324C36.2541 12.4562 36.0424 11.6929 36.0424 10.7422C36.0424 9.84924 36.2612 9.07147 36.6988 8.40891C37.1365 7.74636 37.7506 7.24225 38.5413 6.89657C39.3319 6.53649 40.2354 6.35645 41.2519 6.35645C42.7767 6.35645 44.012 6.73813 44.9579 7.50151C45.918 8.25048 46.4474 9.30192 46.5462 10.6558H43.2849C43.2567 10.1373 43.0379 9.71241 42.6284 9.38114C42.2331 9.03546 41.7037 8.86262 41.0402 8.86262C40.4613 8.86262 39.9954 9.01385 39.6425 9.31632C39.3036 9.61879 39.1342 10.0581 39.1342 10.6342C39.1342 11.0375 39.2613 11.376 39.5154 11.6497C39.7837 11.9089 40.1084 12.125 40.4896 12.2978C40.8849 12.4562 41.4355 12.6435 42.1414 12.8595C43.1014 13.1476 43.885 13.4357 44.492 13.7237C45.0991 14.0118 45.6215 14.4439 46.0591 15.02C46.4968 15.5962 46.7156 16.3523 46.7156 17.2885C46.7156 18.0951 46.5109 18.8441 46.1015 19.5355C45.6921 20.2268 45.0921 20.7813 44.3014 21.199C43.5108 21.6023 42.572 21.804 41.4849 21.804Z" fill="black"/>
<path d="M52.039 11.412C52.4202 10.8647 52.9426 10.411 53.6062 10.0509C54.2838 9.6764 55.0533 9.48916 55.9145 9.48916C56.9168 9.48916 57.8204 9.74122 58.6251 10.2453C59.444 10.7494 60.0864 11.4696 60.5523 12.4058C61.0323 13.3276 61.2723 14.4007 61.2723 15.625C61.2723 16.8492 61.0323 17.9367 60.5523 18.8873C60.0864 19.8235 59.444 20.5509 58.6251 21.0694C57.8204 21.5879 56.9168 21.8472 55.9145 21.8472C55.0533 21.8472 54.2909 21.6671 53.6273 21.3071C52.9779 20.947 52.4485 20.4933 52.039 19.946V27.3564H49.0742V9.68361H52.039V11.412ZM58.244 15.625C58.244 14.9048 58.0957 14.2855 57.7992 13.7669C57.5169 13.234 57.1357 12.8307 56.6557 12.5571C56.1898 12.2834 55.6815 12.1466 55.1309 12.1466C54.5944 12.1466 54.0862 12.2906 53.6062 12.5787C53.1403 12.8523 52.7591 13.2556 52.4626 13.7885C52.1802 14.3215 52.039 14.948 52.039 15.6682C52.039 16.3883 52.1802 17.0149 52.4626 17.5478C52.7591 18.0807 53.1403 18.4912 53.6062 18.7793C54.0862 19.0529 54.5944 19.1898 55.1309 19.1898C55.6815 19.1898 56.1898 19.0457 56.6557 18.7577C57.1357 18.4696 57.5169 18.0591 57.7992 17.5262C58.0957 16.9933 58.244 16.3595 58.244 15.625Z" fill="black"/>
<path d="M62.4526 15.625C62.4526 14.4151 62.6855 13.342 63.1514 12.4058C63.6314 11.4696 64.2738 10.7494 65.0785 10.2453C65.8974 9.74122 66.808 9.48916 67.8104 9.48916C68.6857 9.48916 69.4481 9.6692 70.0975 10.0293C70.7611 10.3894 71.2905 10.8431 71.6858 11.3904V9.68361H74.6718V21.6527H71.6858V19.9027C71.3046 20.4645 70.7752 20.9326 70.0975 21.3071C69.434 21.6671 68.6645 21.8472 67.7892 21.8472C66.801 21.8472 65.8974 21.5879 65.0785 21.0694C64.2738 20.5509 63.6314 19.8235 63.1514 18.8873C62.6855 17.9367 62.4526 16.8492 62.4526 15.625ZM71.6858 15.6682C71.6858 14.9336 71.5446 14.3071 71.2623 13.7885C70.9799 13.2556 70.5987 12.8523 70.1187 12.5787C69.6387 12.2906 69.1234 12.1466 68.5728 12.1466C68.0222 12.1466 67.5139 12.2834 67.048 12.5571C66.5821 12.8307 66.2009 13.234 65.9045 13.7669C65.6221 14.2855 65.4809 14.9048 65.4809 15.625C65.4809 16.3451 65.6221 16.9789 65.9045 17.5262C66.2009 18.0591 66.5821 18.4696 67.048 18.7577C67.528 19.0457 68.0363 19.1898 68.5728 19.1898C69.1234 19.1898 69.6387 19.0529 70.1187 18.7793C70.5987 18.4912 70.9799 18.0879 71.2623 17.5694C71.5446 17.0365 71.6858 16.4027 71.6858 15.6682Z" fill="black"/>
<path d="M76.5933 15.6682C76.5933 14.4295 76.8404 13.3492 77.3345 12.4274C77.8286 11.4912 78.5134 10.7711 79.3887 10.2669C80.264 9.74842 81.2664 9.48916 82.3958 9.48916C83.85 9.48916 85.05 9.86365 85.9959 10.6126C86.956 11.3472 87.5984 12.3842 87.9231 13.7237H84.7253C84.5559 13.2052 84.2665 12.8019 83.8571 12.5139C83.4618 12.2114 82.9676 12.0601 82.3747 12.0601C81.5276 12.0601 80.857 12.377 80.3628 13.0108C79.8687 13.6301 79.6216 14.5159 79.6216 15.6682C79.6216 16.806 79.8687 17.6918 80.3628 18.3256C80.857 18.9449 81.5276 19.2546 82.3747 19.2546C83.5747 19.2546 84.3582 18.7073 84.7253 17.6126H87.9231C87.5984 18.9089 86.956 19.9387 85.9959 20.7021C85.0359 21.4655 83.8359 21.8472 82.3958 21.8472C81.2664 21.8472 80.264 21.5951 79.3887 21.091C78.5134 20.5725 77.8286 19.8523 77.3345 18.9305C76.8404 17.9943 76.5933 16.9069 76.5933 15.6682Z" fill="black"/>
<path d="M100.79 15.4089C100.79 15.841 100.761 16.2299 100.705 16.5756H92.1281C92.1986 17.4398 92.4951 18.1167 93.0175 18.6064C93.5399 19.0962 94.1822 19.341 94.9446 19.341C96.0458 19.341 96.8294 18.8585 97.2953 17.8935H100.493C100.154 19.0457 99.5048 19.9964 98.5447 20.7453C97.5847 21.4799 96.4058 21.8472 95.0081 21.8472C93.8787 21.8472 92.8622 21.5951 91.9586 21.091C91.0692 20.5725 90.3703 19.8451 89.8621 18.9089C89.368 17.9727 89.1209 16.8925 89.1209 15.6682C89.1209 14.4295 89.368 13.342 89.8621 12.4058C90.3562 11.4696 91.048 10.7494 91.9375 10.2453C92.8269 9.74122 93.8505 9.48916 95.0081 9.48916C96.1235 9.48916 97.1188 9.73402 97.9941 10.2237C98.8836 10.7134 99.5683 11.412 100.048 12.3194C100.542 13.2124 100.79 14.2422 100.79 15.4089ZM97.7188 14.5447C97.7047 13.7669 97.4294 13.1476 96.8929 12.6867C96.3564 12.2114 95.6999 11.9737 94.9234 11.9737C94.1893 11.9737 93.5681 12.2042 93.0598 12.6651C92.5657 13.1116 92.2622 13.7381 92.1492 14.5447H97.7188Z" fill="black"/>
<path d="M113.034 11.1095C112.695 10.4758 112.229 9.99328 111.636 9.662C111.043 9.33073 110.351 9.16509 109.561 9.16509C108.685 9.16509 107.909 9.36673 107.231 9.77003C106.554 10.1733 106.024 10.7495 105.643 11.4984C105.262 12.2474 105.071 13.1116 105.071 14.091C105.071 15.0992 105.262 15.9778 105.643 16.7268C106.038 17.4758 106.582 18.0519 107.274 18.4552C107.965 18.8585 108.77 19.0602 109.688 19.0602C110.817 19.0602 111.742 18.7577 112.462 18.1527C113.182 17.5334 113.655 16.6764 113.881 15.5818H108.798V13.27H116.803V15.9058C116.606 16.9573 116.182 17.9295 115.533 18.8225C114.883 19.7155 114.043 20.4357 113.013 20.983C111.996 21.5159 110.853 21.7824 109.582 21.7824C108.156 21.7824 106.864 21.4583 105.707 20.8101C104.563 20.1476 103.659 19.233 102.996 18.0663C102.346 16.8997 102.022 15.5746 102.022 14.091C102.022 12.6075 102.346 11.2824 102.996 10.1157C103.659 8.93463 104.563 8.02003 105.707 7.37188C106.864 6.70933 108.149 6.37805 109.561 6.37805C111.227 6.37805 112.674 6.79575 113.902 7.63114C115.13 8.45212 115.978 9.61159 116.443 11.1095H113.034Z" fill="black"/>
<path d="M129.861 9.68361V21.6527H126.875V20.1404C126.494 20.6589 125.992 21.0694 125.371 21.3719C124.764 21.6599 124.101 21.804 123.381 21.804C122.463 21.804 121.651 21.6095 120.945 21.2206C120.239 20.8174 119.682 20.234 119.272 19.4706C118.877 18.6929 118.679 17.7711 118.679 16.7052V9.68361H121.644V16.2731C121.644 17.2237 121.877 17.9583 122.343 18.4768C122.809 18.9809 123.444 19.233 124.249 19.233C125.068 19.233 125.71 18.9809 126.176 18.4768C126.642 17.9583 126.875 17.2237 126.875 16.2731V9.68361H129.861Z" fill="black"/>
<path d="M135.539 11.5416C135.92 10.9079 136.414 10.411 137.021 10.0509C137.643 9.69081 138.349 9.51077 139.139 9.51077V12.6867H138.356C137.424 12.6867 136.718 12.9099 136.238 13.3564C135.772 13.8029 135.539 14.5807 135.539 15.6898V21.6527H132.574V9.68361H135.539V11.5416Z" fill="black"/>
<path d="M152 9.68361V21.6527H149.014V20.1404C148.633 20.6589 148.132 21.0694 147.51 21.3719C146.903 21.6599 146.24 21.804 145.52 21.804C144.602 21.804 143.79 21.6095 143.084 21.2206C142.379 20.8174 141.821 20.234 141.411 19.4706C141.016 18.6929 140.818 17.7711 140.818 16.7052V9.68361H143.783V16.2731C143.783 17.2237 144.016 17.9583 144.482 18.4768C144.948 18.9809 145.583 19.233 146.388 19.233C147.207 19.233 147.849 18.9809 148.315 18.4768C148.781 17.9583 149.014 17.2237 149.014 16.2731V9.68361H152Z" fill="black"/>
<path d="M9.048 71.4444C8.41867 71.4444 7.85867 71.3058 7.368 71.0284C6.888 70.7511 6.50933 70.3671 6.232 69.8764C5.96533 69.3858 5.832 68.8311 5.832 68.2124C5.832 67.5938 5.96533 67.0391 6.232 66.5484C6.50933 66.0578 6.888 65.6738 7.368 65.3964C7.85867 65.1084 8.41867 64.9644 9.048 64.9644C9.66667 64.9644 10.216 65.1084 10.696 65.3964C11.176 65.6738 11.5493 66.0578 11.816 66.5484C12.0933 67.0391 12.232 67.5938 12.232 68.2124C12.232 68.8311 12.0933 69.3858 11.816 69.8764C11.5493 70.3671 11.176 70.7511 10.696 71.0284C10.216 71.3058 9.66667 71.4444 9.048 71.4444ZM9.048 70.8684C9.816 70.8684 10.4347 70.6231 10.904 70.1324C11.3733 69.6311 11.608 68.9911 11.608 68.2124C11.608 67.4338 11.3733 66.7991 10.904 66.3084C10.4347 65.8071 9.816 65.5564 9.048 65.5564C8.25867 65.5564 7.62933 65.8071 7.16 66.3084C6.69067 66.7991 6.456 67.4338 6.456 68.2124C6.456 68.9911 6.69067 69.6311 7.16 70.1324C7.62933 70.6231 8.25867 70.8684 9.048 70.8684ZM7.768 69.9084V66.4684H9.288C9.65067 66.4684 9.93333 66.5644 10.136 66.7564C10.3493 66.9378 10.456 67.1938 10.456 67.5244C10.456 67.7804 10.3813 67.9991 10.232 68.1804C10.0933 68.3511 9.90133 68.4684 9.656 68.5324L10.584 69.8924L9.688 69.9084L8.856 68.5644H8.52V69.9084H7.768ZM8.52 67.9564H9.224C9.36267 67.9564 9.47467 67.9244 9.56 67.8604C9.656 67.7964 9.704 67.6898 9.704 67.5404C9.704 67.4018 9.656 67.3004 9.56 67.2364C9.47467 67.1724 9.36267 67.1404 9.224 67.1404H8.52V67.9564ZM21.7289 76.5484C20.9075 76.5484 20.1929 76.3991 19.5849 76.1004C18.9769 75.8018 18.5075 75.3858 18.1769 74.8524C17.8462 74.3191 17.6809 73.7004 17.6809 72.9964H19.0889C19.0889 73.4338 19.1902 73.8391 19.3929 74.2124C19.5955 74.5751 19.8889 74.8684 20.2729 75.0924C20.6675 75.3058 21.1529 75.4124 21.7289 75.4124C22.4862 75.4124 23.0729 75.2311 23.4889 74.8684C23.9049 74.5058 24.1129 74.0524 24.1129 73.5084C24.1129 73.0604 24.0169 72.7031 23.8249 72.4364C23.6329 72.1591 23.3715 71.9351 23.0409 71.7644C22.7209 71.5938 22.3475 71.4444 21.9209 71.3164C21.5049 71.1884 21.0675 71.0444 20.6089 70.8844C19.7449 70.5858 19.1049 70.2178 18.6889 69.7804C18.2729 69.3324 18.0649 68.7511 18.0649 68.0364C18.0542 67.4391 18.1929 66.9111 18.4809 66.4524C18.7689 65.9831 19.1742 65.6204 19.6969 65.3644C20.2302 65.0978 20.8595 64.9644 21.5849 64.9644C22.2995 64.9644 22.9182 65.0978 23.4409 65.3644C23.9742 65.6311 24.3849 65.9991 24.6729 66.4684C24.9715 66.9378 25.1262 67.4711 25.1369 68.0684H23.7289C23.7289 67.7591 23.6489 67.4551 23.4889 67.1564C23.3289 66.8471 23.0835 66.5964 22.7529 66.4044C22.4329 66.2124 22.0275 66.1164 21.5369 66.1164C20.9289 66.1058 20.4275 66.2604 20.0329 66.5804C19.6489 66.9004 19.4569 67.3431 19.4569 67.9084C19.4569 68.3884 19.5902 68.7564 19.8569 69.0124C20.1342 69.2684 20.5182 69.4818 21.0089 69.6524C21.4995 69.8124 22.0649 69.9991 22.7049 70.2124C23.2382 70.4044 23.7182 70.6284 24.1449 70.8844C24.5715 71.1404 24.9022 71.4711 25.1369 71.8764C25.3822 72.2818 25.5049 72.7991 25.5049 73.4284C25.5049 73.9618 25.3662 74.4684 25.0889 74.9484C24.8115 75.4178 24.3902 75.8018 23.8249 76.1004C23.2702 76.3991 22.5715 76.5484 21.7289 76.5484ZM27.1709 79.8764V68.4204H28.3869L28.5149 69.7324C28.7709 69.3484 29.1335 69.0018 29.6029 68.6924C30.0829 68.3831 30.6909 68.2284 31.4269 68.2284C32.2162 68.2284 32.9042 68.4098 33.4909 68.7724C34.0775 69.1351 34.5309 69.6311 34.8509 70.2604C35.1815 70.8898 35.3469 71.6044 35.3469 72.4044C35.3469 73.2044 35.1815 73.9191 34.8509 74.5484C34.5309 75.1671 34.0722 75.6578 33.4749 76.0204C32.8882 76.3724 32.2002 76.5484 31.4109 76.5484C30.7602 76.5484 30.1789 76.4151 29.6669 76.1484C29.1655 75.8818 28.7815 75.5084 28.5149 75.0284V79.8764H27.1709ZM31.2669 75.3804C31.8002 75.3804 32.2695 75.2578 32.6749 75.0124C33.0802 74.7564 33.4002 74.4044 33.6349 73.9564C33.8695 73.5084 33.9869 72.9858 33.9869 72.3884C33.9869 71.7911 33.8695 71.2684 33.6349 70.8204C33.4002 70.3724 33.0802 70.0258 32.6749 69.7804C32.2695 69.5244 31.8002 69.3964 31.2669 69.3964C30.7335 69.3964 30.2642 69.5244 29.8589 69.7804C29.4535 70.0258 29.1335 70.3724 28.8989 70.8204C28.6642 71.2684 28.5469 71.7911 28.5469 72.3884C28.5469 72.9858 28.6642 73.5084 28.8989 73.9564C29.1335 74.4044 29.4535 74.7564 29.8589 75.0124C30.2642 75.2578 30.7335 75.3804 31.2669 75.3804ZM39.6978 76.5484C39.0364 76.5484 38.4871 76.4364 38.0498 76.2124C37.6124 75.9884 37.2871 75.6898 37.0738 75.3164C36.8604 74.9431 36.7538 74.5378 36.7538 74.1004C36.7538 73.2898 37.0631 72.6658 37.6818 72.2284C38.3004 71.7911 39.1431 71.5724 40.2098 71.5724H42.3538V71.4764C42.3538 70.7831 42.1724 70.2604 41.8098 69.9084C41.4471 69.5458 40.9618 69.3644 40.3538 69.3644C39.8311 69.3644 39.3778 69.4978 38.9938 69.7644C38.6204 70.0204 38.3858 70.3991 38.2898 70.9004H36.9138C36.9671 70.3244 37.1591 69.8391 37.4898 69.4444C37.8311 69.0498 38.2524 68.7511 38.7538 68.5484C39.2551 68.3351 39.7884 68.2284 40.3538 68.2284C41.4631 68.2284 42.2951 68.5271 42.8498 69.1244C43.4151 69.7111 43.6978 70.4951 43.6978 71.4764V76.3564H42.4978L42.4178 74.9324C42.1938 75.3804 41.8631 75.7644 41.4258 76.0844C40.9991 76.3938 40.4231 76.5484 39.6978 76.5484ZM39.9058 75.4124C40.4178 75.4124 40.8551 75.2791 41.2178 75.0124C41.5911 74.7458 41.8738 74.3991 42.0658 73.9724C42.2578 73.5458 42.3538 73.0978 42.3538 72.6284V72.6124H40.3218C39.5324 72.6124 38.9724 72.7511 38.6418 73.0284C38.3218 73.2951 38.1618 73.6311 38.1618 74.0364C38.1618 74.4524 38.3111 74.7884 38.6098 75.0444C38.9191 75.2898 39.3511 75.4124 39.9058 75.4124ZM49.202 76.5484C48.4447 76.5484 47.762 76.3778 47.154 76.0364C46.5567 75.6844 46.082 75.1991 45.73 74.5804C45.3887 73.9511 45.218 73.2204 45.218 72.3884C45.218 71.5564 45.3887 70.8311 45.73 70.2124C46.082 69.5831 46.5567 69.0978 47.154 68.7564C47.762 68.4044 48.4447 68.2284 49.202 68.2284C50.1407 68.2284 50.93 68.4738 51.57 68.9644C52.2207 69.4551 52.6313 70.1111 52.802 70.9324H51.426C51.3193 70.4418 51.058 70.0631 50.642 69.7964C50.226 69.5191 49.7407 69.3804 49.186 69.3804C48.738 69.3804 48.3167 69.4924 47.922 69.7164C47.5273 69.9404 47.2073 70.2764 46.962 70.7244C46.7167 71.1724 46.594 71.7271 46.594 72.3884C46.594 73.0498 46.7167 73.6044 46.962 74.0524C47.2073 74.5004 47.5273 74.8418 47.922 75.0764C48.3167 75.3004 48.738 75.4124 49.186 75.4124C49.7407 75.4124 50.226 75.2791 50.642 75.0124C51.058 74.7351 51.3193 74.3458 51.426 73.8444H52.802C52.642 74.6444 52.2367 75.2951 51.586 75.7964C50.9353 76.2978 50.1407 76.5484 49.202 76.5484ZM58.087 76.5484C57.3297 76.5484 56.6577 76.3778 56.071 76.0364C55.4843 75.6844 55.0203 75.1991 54.679 74.5804C54.3483 73.9618 54.183 73.2311 54.183 72.3884C54.183 71.5564 54.3483 70.8311 54.679 70.2124C55.0097 69.5831 55.4683 69.0978 56.055 68.7564C56.6523 68.4044 57.3403 68.2284 58.119 68.2284C58.887 68.2284 59.5483 68.4044 60.103 68.7564C60.6683 69.0978 61.1003 69.5511 61.399 70.1164C61.6977 70.6818 61.847 71.2898 61.847 71.9404C61.847 72.0578 61.8417 72.1751 61.831 72.2924C61.831 72.4098 61.831 72.5431 61.831 72.6924H55.511C55.543 73.3004 55.6817 73.8071 55.927 74.2124C56.183 74.6071 56.4977 74.9058 56.871 75.1084C57.255 75.3111 57.6603 75.4124 58.087 75.4124C58.6417 75.4124 59.1057 75.2844 59.479 75.0284C59.8523 74.7724 60.1243 74.4258 60.295 73.9884H61.623C61.4097 74.7244 60.999 75.3378 60.391 75.8284C59.7937 76.3084 59.0257 76.5484 58.087 76.5484ZM58.087 69.3644C57.447 69.3644 56.8763 69.5618 56.375 69.9564C55.8843 70.3404 55.6017 70.9058 55.527 71.6524H60.519C60.487 70.9378 60.2417 70.3778 59.783 69.9724C59.3243 69.5671 58.759 69.3644 58.087 69.3644ZM72.4388 76.5484C71.3934 76.5484 70.4761 76.3084 69.6868 75.8284C68.8974 75.3378 68.2841 74.6604 67.8468 73.7964C67.4094 72.9218 67.1908 71.9138 67.1908 70.7724C67.1908 69.6311 67.4094 68.6231 67.8468 67.7484C68.2948 66.8738 68.9241 66.1911 69.7348 65.7004C70.5561 65.2098 71.5214 64.9644 72.6308 64.9644C73.8894 64.9644 74.9348 65.2684 75.7668 65.8764C76.6094 66.4844 77.1534 67.3218 77.3988 68.3884H75.8468C75.6974 67.7164 75.3401 67.1831 74.7748 66.7884C74.2201 66.3938 73.5054 66.1964 72.6308 66.1964C71.8094 66.1964 71.0948 66.3831 70.4868 66.7564C69.8788 67.1191 69.4041 67.6418 69.0628 68.3244C68.7321 69.0071 68.5668 69.8231 68.5668 70.7724C68.5668 71.7218 68.7321 72.5378 69.0628 73.2204C69.3934 73.9031 69.8521 74.4311 70.4388 74.8044C71.0254 75.1671 71.7081 75.3484 72.4868 75.3484C73.6814 75.3484 74.5828 75.0018 75.1908 74.3084C75.7988 73.6044 76.1454 72.6444 76.2308 71.4284H72.9988V70.3724H77.6068V76.3564H76.3748L76.2628 74.5164C75.8574 75.1671 75.3614 75.6684 74.7748 76.0204C74.1881 76.3724 73.4094 76.5484 72.4388 76.5484ZM82.3881 76.5484C81.4495 76.5484 80.7028 76.2658 80.1481 75.7004C79.5935 75.1244 79.3161 74.2444 79.3161 73.0604V68.4204H80.6601V72.9164C80.6601 74.5698 81.3375 75.3964 82.6921 75.3964C83.3855 75.3964 83.9561 75.1511 84.4041 74.6604C84.8628 74.1591 85.0921 73.4498 85.0921 72.5324V68.4204H86.4361V76.3564H85.2201L85.1241 74.9324C84.8788 75.4338 84.5108 75.8284 84.0201 76.1164C83.5401 76.4044 82.9961 76.5484 82.3881 76.5484ZM88.4884 76.3564V68.4204H89.7044L89.8164 69.9404C90.0617 69.4178 90.435 69.0018 90.9364 68.6924C91.4377 68.3831 92.0564 68.2284 92.7924 68.2284V69.6364H92.4244C91.955 69.6364 91.523 69.7218 91.1284 69.8924C90.7337 70.0524 90.419 70.3298 90.1844 70.7244C89.9497 71.1191 89.8324 71.6631 89.8324 72.3564V76.3564H88.4884ZM97.0369 76.5484C96.0982 76.5484 95.3515 76.2658 94.7969 75.7004C94.2422 75.1244 93.9649 74.2444 93.9649 73.0604V68.4204H95.3089V72.9164C95.3089 74.5698 95.9862 75.3964 97.3409 75.3964C98.0342 75.3964 98.6049 75.1511 99.0529 74.6604C99.5115 74.1591 99.7409 73.4498 99.7409 72.5324V68.4204H101.085V76.3564H99.8689L99.7729 74.9324C99.5275 75.4338 99.1595 75.8284 98.6689 76.1164C98.1889 76.4044 97.6449 76.5484 97.0369 76.5484ZM102.065 78.2604L102.993 74.7244H104.385L102.993 78.2604H102.065ZM109.799 76.3564V75.4124C110.557 74.8151 111.271 74.2124 111.943 73.6044C112.626 72.9858 113.229 72.3778 113.751 71.7804C114.285 71.1831 114.701 70.5964 114.999 70.0204C115.309 69.4444 115.463 68.8898 115.463 68.3564C115.463 67.9618 115.394 67.5938 115.255 67.2524C115.127 66.9111 114.914 66.6391 114.615 66.4364C114.317 66.2231 113.911 66.1164 113.399 66.1164C112.909 66.1164 112.498 66.2284 112.167 66.4524C111.837 66.6658 111.586 66.9538 111.415 67.3164C111.255 67.6791 111.175 68.0684 111.175 68.4844H109.879C109.879 67.7484 110.034 67.1191 110.343 66.5964C110.653 66.0631 111.074 65.6578 111.607 65.3804C112.141 65.1031 112.743 64.9644 113.415 64.9644C114.407 64.9644 115.218 65.2471 115.847 65.8124C116.487 66.3671 116.807 67.1991 116.807 68.3084C116.807 68.9698 116.642 69.6258 116.311 70.2764C115.981 70.9164 115.559 71.5404 115.047 72.1484C114.535 72.7458 113.986 73.3058 113.399 73.8284C112.823 74.3511 112.285 74.8204 111.783 75.2364H117.191V76.3564H109.799ZM123.183 76.5484C122.191 76.5484 121.333 76.3084 120.607 75.8284C119.893 75.3378 119.343 74.6604 118.959 73.7964C118.575 72.9218 118.383 71.9084 118.383 70.7564C118.383 69.6044 118.575 68.5964 118.959 67.7324C119.343 66.8578 119.893 66.1804 120.607 65.7004C121.333 65.2098 122.191 64.9644 123.183 64.9644C124.175 64.9644 125.029 65.2098 125.743 65.7004C126.458 66.1804 127.007 66.8578 127.391 67.7324C127.775 68.5964 127.967 69.6044 127.967 70.7564C127.967 71.9084 127.775 72.9218 127.391 73.7964C127.007 74.6604 126.458 75.3378 125.743 75.8284C125.029 76.3084 124.175 76.5484 123.183 76.5484ZM123.183 75.3644C123.834 75.3644 124.415 75.1831 124.927 74.8204C125.45 74.4471 125.855 73.9191 126.143 73.2364C126.442 72.5431 126.591 71.7164 126.591 70.7564C126.591 69.7964 126.442 68.9751 126.143 68.2924C125.855 67.6098 125.45 67.0871 124.927 66.7244C124.415 66.3511 123.834 66.1644 123.183 66.1644C122.522 66.1644 121.935 66.3511 121.423 66.7244C120.911 67.0871 120.506 67.6098 120.207 68.2924C119.909 68.9751 119.759 69.7964 119.759 70.7564C119.759 71.7164 119.909 72.5431 120.207 73.2364C120.506 73.9191 120.911 74.4471 121.423 74.8204C121.935 75.1831 122.522 75.3644 123.183 75.3644ZM129.417 76.3564V75.4124C130.174 74.8151 130.889 74.2124 131.561 73.6044C132.243 72.9858 132.846 72.3778 133.369 71.7804C133.902 71.1831 134.318 70.5964 134.617 70.0204C134.926 69.4444 135.081 68.8898 135.081 68.3564C135.081 67.9618 135.011 67.5938 134.873 67.2524C134.745 66.9111 134.531 66.6391 134.233 66.4364C133.934 66.2231 133.529 66.1164 133.017 66.1164C132.526 66.1164 132.115 66.2284 131.785 66.4524C131.454 66.6658 131.203 66.9538 131.033 67.3164C130.873 67.6791 130.793 68.0684 130.793 68.4844H129.497C129.497 67.7484 129.651 67.1191 129.961 66.5964C130.27 66.0631 130.691 65.6578 131.225 65.3804C131.758 65.1031 132.361 64.9644 133.033 64.9644C134.025 64.9644 134.835 65.2471 135.465 65.8124C136.105 66.3671 136.425 67.1991 136.425 68.3084C136.425 68.9698 136.259 69.6258 135.929 70.2764C135.598 70.9164 135.177 71.5404 134.665 72.1484C134.153 72.7458 133.603 73.3058 133.017 73.8284C132.441 74.3511 131.902 74.8204 131.401 75.2364H136.809V76.3564H129.417ZM138.413 76.3564V75.4124C139.17 74.8151 139.885 74.2124 140.557 73.6044C141.24 72.9858 141.842 72.3778 142.365 71.7804C142.898 71.1831 143.314 70.5964 143.613 70.0204C143.922 69.4444 144.077 68.8898 144.077 68.3564C144.077 67.9618 144.008 67.5938 143.869 67.2524C143.741 66.9111 143.528 66.6391 143.229 66.4364C142.93 66.2231 142.525 66.1164 142.013 66.1164C141.522 66.1164 141.112 66.2284 140.781 66.4524C140.45 66.6658 140.2 66.9538 140.029 67.3164C139.869 67.6791 139.789 68.0684 139.789 68.4844H138.493C138.493 67.7484 138.648 67.1191 138.957 66.5964C139.266 66.0631 139.688 65.6578 140.221 65.3804C140.754 65.1031 141.357 64.9644 142.029 64.9644C143.021 64.9644 143.832 65.2471 144.461 65.8124C145.101 66.3671 145.421 67.1991 145.421 68.3084C145.421 68.9698 145.256 69.6258 144.925 70.2764C144.594 70.9164 144.173 71.5404 143.661 72.1484C143.149 72.7458 142.6 73.3058 142.013 73.8284C141.437 74.3511 140.898 74.8204 140.397 75.2364H145.805V76.3564H138.413Z" fill="#5D58F7"/>
<defs>
<linearGradient id="paint0_linear_775_9846" x1="22.685" y1="5.02295" x2="10.7593" y2="5.02295" gradientUnits="userSpaceOnUse">
<stop stop-color="white"/>
<stop offset="1" stop-color="white" stop-opacity="0.5"/>
</linearGradient>
<linearGradient id="paint1_linear_775_9846" x1="5.05616" y1="23.6895" x2="16.9819" y2="23.6895" gradientUnits="userSpaceOnUse">
<stop stop-color="white"/>
<stop offset="1" stop-color="white" stop-opacity="0.5"/>
</linearGradient>
<clipPath id="clip0_775_9846">
<rect width="28" height="28" fill="white" transform="translate(0 0.356445)"/>
</clipPath>
</defs>
</svg>
