<svg width="20" height="19" viewBox="0 0 20 19" fill="none" xmlns="http://www.w3.org/2000/svg">
<path d="M11.4653 0.499817C13.4637 0.499817 15.3803 1.29368 16.7933 2.70675C18.2064 4.11983 19.0003 6.03637 19.0003 8.03477" stroke="white" stroke-miterlimit="10" stroke-linecap="round" stroke-linejoin="round"/>
<path d="M11.4653 3.84869C12.5756 3.84869 13.6403 4.28973 14.4253 5.07477C15.2104 5.85981 15.6514 6.92456 15.6514 8.03478" stroke="white" stroke-miterlimit="10" stroke-linecap="round" stroke-linejoin="round"/>
<path d="M12.738 11.7771L11.3051 13.5683C9.08586 12.264 7.23635 10.4147 5.93189 8.1955L7.72311 6.7626C7.933 6.59452 8.08133 6.36167 8.14494 6.1004C8.20855 5.83914 8.18387 5.56416 8.07474 5.3184L6.44175 1.64176C6.32472 1.37799 6.11778 1.16438 5.85787 1.03902C5.59795 0.913658 5.30195 0.884711 5.02267 0.957339L1.91492 1.76358C1.62488 1.83936 1.37272 2.0189 1.20623 2.26818C1.03973 2.51746 0.970468 2.81916 1.01156 3.1161C1.55703 7.00022 3.35217 10.6012 6.12561 13.3746C8.89904 16.1481 12.5 17.9432 16.3841 18.4887C16.681 18.5297 16.9826 18.4603 17.2318 18.2938C17.481 18.1274 17.6605 17.8753 17.7362 17.5853L18.5425 14.4771C18.6149 14.1979 18.586 13.902 18.4607 13.6422C18.3355 13.3823 18.122 13.1753 17.8585 13.0581L14.1822 11.4255C13.9365 11.3163 13.6615 11.2916 13.4002 11.3552C13.1389 11.4188 12.9061 11.5672 12.738 11.7771V11.7771Z" stroke="white" stroke-miterlimit="10" stroke-linecap="round" stroke-linejoin="round"/>
</svg>
